<?xml version="1.0" standalone="no"?>
<!DOCTYPE svg PUBLIC "-//W3C//DTD SVG 20010904//EN"
 "http://www.w3.org/TR/2001/REC-SVG-20010904/DTD/svg10.dtd">
<svg version="1.0" xmlns="http://www.w3.org/2000/svg"
 width="500.000000pt" height="500.000000pt" viewBox="0 0 500.000000 500.000000"
 preserveAspectRatio="xMidYMid meet">

<g transform="translate(0.000000,500.000000) scale(0.100000,-0.100000)"
fill="#000000" stroke="none">
<path d="M1075 3579 c-263 -101 -483 -220 -644 -350 -177 -142 -312 -304 -372
-447 -33 -79 -59 -201 -59 -273 l0 -51 33 6 c69 14 307 36 397 36 325 0 565
-95 664 -264 22 -38 44 -106 61 -188 l5 -27 43 25 c114 66 297 96 445 75 344
-50 690 -331 818 -665 16 -41 32 -76 35 -76 3 0 11 18 18 41 20 67 93 200 154
281 138 183 342 327 562 396 67 21 101 25 215 26 150 1 235 -18 338 -75 28
-16 52 -26 52 -22 1 36 34 151 55 192 111 219 441 317 900 267 83 -9 163 -20
179 -23 l29 -6 -6 84 c-20 243 -138 444 -389 656 -123 104 -234 175 -413 263
-125 62 -387 170 -411 170 -2 0 11 -20 30 -44 85 -112 92 -259 19 -386 -41
-71 -159 -180 -238 -221 -177 -92 -345 -129 -626 -136 l-197 -6 -15 49 c-24
75 -37 159 -38 253 -1 47 -4 118 -8 156 l-6 70 -57 -105 -56 -105 -93 2 -93 2
-56 103 -55 103 -6 -70 c-4 -38 -7 -109 -8 -156 -1 -94 -12 -165 -38 -248
l-17 -54 -195 6 c-363 9 -596 81 -759 232 -176 164 -207 360 -81 518 16 20 26
37 22 36 -4 0 -66 -22 -138 -50z m-255 -419 c17 -22 38 -40 46 -40 7 0 51 -17
96 -38 61 -28 87 -46 96 -66 15 -32 16 -90 2 -116 -13 -25 -92 -34 -187 -23
l-72 9 65 -59 c36 -33 71 -72 79 -88 50 -96 -37 -164 -188 -145 -65 8 -161 40
-205 66 -44 27 -44 28 79 274 94 186 99 199 82 213 -17 14 -17 14 5 10 16 -4
27 1 38 19 9 13 20 24 24 24 5 0 23 -18 40 -40z m3580 -236 c79 -99 142 -192
138 -205 -2 -5 -34 16 -71 49 -37 32 -82 66 -99 77 l-31 18 7 -24 c3 -13 12
-59 18 -101 11 -73 11 -80 -8 -105 -46 -62 -152 -62 -219 1 -83 78 -46 212 80
293 28 17 63 43 80 56 16 14 33 23 37 21 4 -2 34 -38 68 -80z m-518 24 c26
-20 152 -358 173 -465 10 -51 -9 -39 -45 28 -17 33 -33 59 -35 57 -2 -2 -10
-32 -19 -68 -19 -74 -45 -106 -96 -120 -88 -24 -200 55 -200 142 0 79 82 189
163 219 20 7 37 18 37 24 0 9 -19 41 -97 168 -13 22 93 35 119 15z m-2224
-222 c15 -8 36 -24 47 -35 20 -23 20 -23 -10 -93 -6 -16 0 -18 56 -18 58 -1
62 -2 45 -15 -10 -8 -43 -20 -73 -26 -66 -15 -70 -22 -113 -185 -18 -65 -36
-123 -41 -128 -11 -12 -11 155 0 232 4 28 4 52 -1 52 -10 0 -38 55 -38 76 0
12 7 15 30 12 28 -4 30 -2 40 44 5 27 10 57 10 67 0 16 8 31 17 31 2 0 16 -6
31 -14z m310 -9 c12 -14 -7 -130 -24 -147 -7 -7 -25 13 -52 56 -23 36 -42 70
-42 75 0 25 99 39 118 16z m-639 -48 c24 -10 53 -19 65 -19 51 -1 52 -9 14
-162 -20 -79 -42 -156 -50 -173 -12 -27 -13 -20 -16 93 -1 67 -4 122 -6 122
-2 0 -37 -34 -79 -75 -86 -86 -113 -94 -167 -49 -42 36 -62 79 -63 136 -2 129
152 194 302 127z m1036 5 c66 -8 132 -17 148 -20 52 -11 17 -22 -90 -29 -60
-4 -112 -10 -116 -12 -5 -3 6 -14 23 -25 32 -19 32 -21 26 -71 -7 -63 -70
-341 -85 -380 -23 -58 -31 -15 -31 161 0 235 -8 314 -29 308 -9 -3 -51 -8 -93
-12 -77 -6 -78 -6 -78 17 0 13 9 39 20 57 l21 34 82 -7 c45 -3 136 -13 202
-21z m309 -10 c10 -27 7 -144 -4 -144 -14 0 -120 105 -120 118 0 12 67 41 96
41 12 1 25 -6 28 -15z m823 -83 c61 -28 74 -61 80 -202 4 -78 2 -119 -4 -119
-11 0 -15 10 -48 105 -43 122 -91 188 -123 169 -48 -30 -66 -129 -47 -255 7
-47 -10 -77 -38 -66 -12 4 -102 241 -114 299 -5 27 -4 28 39 28 50 0 68 -13
68 -49 0 -21 6 -16 31 30 44 81 79 94 156 60z m-1591 -52 c23 -14 34 -28 34
-45 0 -47 -102 -325 -115 -312 -2 1 -1 87 2 191 6 178 7 187 26 187 11 0 35
-9 53 -21z m1165 -78 c64 -63 63 -82 -3 -121 -70 -40 -156 -72 -190 -72 -34 1
-36 -11 -6 -32 39 -28 123 -20 212 19 44 19 81 33 84 31 8 -9 -57 -68 -112
-101 -125 -74 -239 -26 -250 106 -8 92 98 219 182 219 28 0 44 -9 83 -49z
m-414 22 l36 -17 -7 -95 c-5 -88 -20 -190 -32 -233 -9 -30 -24 -20 -24 15 0
17 -14 99 -30 180 -17 82 -28 153 -25 158 9 14 43 11 82 -8z"/>
<path d="M777 3008 c-112 -152 -211 -308 -200 -319 18 -18 123 -29 188 -20 78
11 105 27 105 63 0 29 -15 42 -92 81 -33 17 -44 28 -46 50 -5 44 10 53 104 60
84 6 134 24 134 48 0 14 -46 54 -98 85 l-41 25 -54 -73z"/>
<path d="M4228 2903 c-35 -37 -49 -77 -49 -140 0 -79 44 -149 79 -126 39 24
59 216 26 244 -9 7 -19 21 -23 31 -6 17 -9 16 -33 -9z"/>
<path d="M3840 2708 c-89 -60 -119 -236 -46 -269 33 -16 79 20 111 86 21 42
23 56 15 90 -9 41 -37 115 -44 115 -2 0 -18 -10 -36 -22z"/>
<path d="M1210 2639 c-69 -28 -120 -91 -120 -149 0 -26 4 -30 26 -30 61 0 194
92 194 134 0 11 7 28 17 38 15 17 14 18 -38 17 -30 0 -65 -5 -79 -10z"/>
<path d="M2892 2386 c-26 -25 -44 -47 -41 -50 5 -5 196 31 211 40 17 11 7 26
-27 40 -61 25 -91 19 -143 -30z"/>
</g>
</svg>
